<svg width="104" height="104" viewBox="0 0 104 104" fill="none" xmlns="http://www.w3.org/2000/svg">
<g filter="url(#filter0_d_0_1)">
<circle cx="41.4474" cy="41.4474" r="41.4474" transform="matrix(-1 0 0 1 93.4473 10.5522)" fill="white"/>
</g>
<circle cx="50" cy="50" r="50" transform="matrix(-1 0 0 1 102 2)" stroke="#B9B9B9" stroke-width="2" stroke-dasharray="7 7"/>
<g filter="url(#filter1_d_0_1)">
<circle cx="41.4474" cy="41.4474" r="41.4474" transform="matrix(-1 0 0 1 93.4473 10.5522)" fill="white"/>
</g>
<g clip-path="url(#clip0_0_1)">
<path d="M50.5437 29.0569C47.9505 29.3257 45.8032 29.935 43.4465 31.073C39.4703 32.9905 36.1127 36.2969 34.1656 40.2126C32.8826 42.8022 32.2366 45.2215 32.0637 48.053L32 49.1641L32.2639 48.9938C32.8553 48.6085 33.3739 48.3666 34.0655 48.1336L34.8025 47.8917L34.8753 47.3272C35.03 46.1534 35.4121 44.433 35.7215 43.5459C37.7233 37.8471 42.4456 33.5909 48.36 32.1572C49.7794 31.8167 50.7803 31.7092 52.5 31.7092C54.2197 31.7092 55.2206 31.8167 56.64 32.1572C60.9893 33.2145 64.8018 35.8489 67.2676 39.4958C67.941 40.4993 68.8509 42.3362 69.2785 43.5459C69.5879 44.433 69.97 46.1534 70.1247 47.3272L70.1975 47.8917L70.9345 48.1336C71.6261 48.3666 72.1447 48.6085 72.7361 48.9938L73 49.1641L72.9363 48.053C72.6815 43.7789 71.1074 39.7467 68.3959 36.4492C67.6862 35.5801 66.1576 34.0837 65.2841 33.3937C62.5544 31.2432 59.2696 29.8096 55.7301 29.2272C54.4927 29.0211 51.7175 28.9315 50.5437 29.0569Z" fill="#01539D"/>
<path d="M40.7712 47.8829C39.2062 48.1876 37.8777 49.5137 37.5775 51.0907C37.4501 51.7359 37.4501 62.8289 37.5775 63.474C37.8959 65.1407 39.2517 66.431 40.9805 66.7087C43.0824 67.0492 45.1751 65.5797 45.5846 63.474C45.712 62.8289 45.712 51.7359 45.5846 51.0907C45.1569 48.9044 42.9914 47.4528 40.7712 47.8829Z" fill="#F9B041"/>
<path d="M62.6089 47.8829C61.0438 48.1876 59.7154 49.5137 59.4151 51.0908C59.2877 51.7359 59.2877 62.8289 59.4151 63.4741C59.6517 64.7016 60.5252 65.8306 61.6444 66.3414C62.4269 66.7088 63.355 66.8521 64.0374 66.7088C64.3104 66.655 64.556 66.6102 64.5651 66.6281C64.5833 66.6371 64.465 66.9059 64.3195 67.2105C63.8099 68.25 62.6634 69.137 61.5261 69.37C61.244 69.4238 60.0702 69.4686 58.7054 69.4686H56.367L56.094 68.9578C55.3024 67.4614 53.5645 66.5833 51.9176 66.8521C49.6701 67.2195 48.1142 69.2714 48.4781 71.404C48.7784 73.1692 50.116 74.4864 51.9176 74.7731C53.5554 75.0419 55.3024 74.1638 56.094 72.6764L56.3579 72.1746L59.1421 72.1298C62.0629 72.094 62.2358 72.0671 63.3277 71.6191C64.8927 70.965 66.3121 69.5671 66.9673 68.0349C67.4859 66.8252 67.4586 67.2464 67.4859 59.1372C67.5132 54.1731 67.4859 51.4492 67.4222 51.1176C67.0128 48.9134 64.8381 47.4528 62.6089 47.8829Z" fill="#F9B041"/>
<path d="M34.22 50.9831C33.2555 51.449 32.3547 52.6139 32.1273 53.6801C31.9908 54.3163 31.9908 60.2481 32.1273 60.8843C32.3911 62.1029 33.5558 63.456 34.6204 63.7696C34.8024 63.8233 34.8024 63.7785 34.8024 57.2822C34.8024 53.6802 34.7842 50.7411 34.7478 50.7411C34.7205 50.7411 34.4839 50.8487 34.22 50.9831Z" fill="#01539D"/>
<path d="M70.1973 57.2822C70.1973 63.7785 70.1973 63.8233 70.3792 63.7696C71.4438 63.456 72.6085 62.1029 72.8724 60.8843C73.0089 60.2481 73.0089 54.3163 72.8724 53.6802C72.6085 52.4615 71.4438 51.1085 70.3792 50.7949C70.1973 50.7411 70.1973 50.7859 70.1973 57.2822Z" fill="#01539D"/>
</g>
<defs>
<filter id="filter0_d_0_1" x="0.552734" y="0.552246" width="102.895" height="102.895" filterUnits="userSpaceOnUse" color-interpolation-filters="sRGB">
<feFlood flood-opacity="0" result="BackgroundImageFix"/>
<feColorMatrix in="SourceAlpha" type="matrix" values="0 0 0 0 0 0 0 0 0 0 0 0 0 0 0 0 0 0 127 0" result="hardAlpha"/>
<feOffset/>
<feGaussianBlur stdDeviation="5"/>
<feColorMatrix type="matrix" values="0 0 0 0 0.525 0 0 0 0 0.525 0 0 0 0 0.525 0 0 0 0.12 0"/>
<feBlend mode="normal" in2="BackgroundImageFix" result="effect1_dropShadow_0_1"/>
<feBlend mode="normal" in="SourceGraphic" in2="effect1_dropShadow_0_1" result="shape"/>
</filter>
<filter id="filter1_d_0_1" x="0.552734" y="0.552246" width="102.895" height="102.895" filterUnits="userSpaceOnUse" color-interpolation-filters="sRGB">
<feFlood flood-opacity="0" result="BackgroundImageFix"/>
<feColorMatrix in="SourceAlpha" type="matrix" values="0 0 0 0 0 0 0 0 0 0 0 0 0 0 0 0 0 0 127 0" result="hardAlpha"/>
<feOffset/>
<feGaussianBlur stdDeviation="5"/>
<feColorMatrix type="matrix" values="0 0 0 0 0.525 0 0 0 0 0.525 0 0 0 0 0.525 0 0 0 0.12 0"/>
<feBlend mode="normal" in2="BackgroundImageFix" result="effect1_dropShadow_0_1"/>
<feBlend mode="normal" in="SourceGraphic" in2="effect1_dropShadow_0_1" result="shape"/>
</filter>
<clipPath id="clip0_0_1">
<rect width="41" height="45.8235" fill="white" transform="translate(32 29)"/>
</clipPath>
</defs>
</svg>
