<svg width="104" height="104" viewBox="0 0 104 104" fill="none" xmlns="http://www.w3.org/2000/svg">
<g filter="url(#filter0_d_0_1)">
<circle cx="41.4474" cy="41.4474" r="41.4474" transform="matrix(-1 0 0 1 93.4473 10.5527)" fill="white"/>
</g>
<circle cx="50" cy="50" r="50" transform="matrix(-1 0 0 1 102 2)" stroke="#B9B9B9" stroke-width="2" stroke-dasharray="7 7"/>
<g filter="url(#filter1_d_0_1)">
<circle cx="41.4474" cy="41.4474" r="41.4474" transform="matrix(-1 0 0 1 93.4473 10.5527)" fill="white"/>
</g>
<circle cx="52.5" cy="42.5" r="17.5" fill="#01539D"/>
<circle cx="52.5" cy="42.5" r="7.5" fill="white"/>
<circle cx="52.5" cy="42.5" r="3.5" fill="#F9B041"/>
<rect x="51" y="58" width="2" height="9" fill="#01539D"/>
<path d="M43.8106 67.7575C43.9219 67.3123 44.3219 67 44.7808 67H59.2192C59.6781 67 60.0781 67.3123 60.1894 67.7575L62.6894 77.7575C62.8472 78.3886 62.3698 79 61.7192 79H42.2808C41.6302 79 41.1528 78.3886 41.3106 77.7575L43.8106 67.7575Z" fill="#01539D"/>
<defs>
<filter id="filter0_d_0_1" x="0.552734" y="0.552734" width="102.895" height="102.895" filterUnits="userSpaceOnUse" color-interpolation-filters="sRGB">
<feFlood flood-opacity="0" result="BackgroundImageFix"/>
<feColorMatrix in="SourceAlpha" type="matrix" values="0 0 0 0 0 0 0 0 0 0 0 0 0 0 0 0 0 0 127 0" result="hardAlpha"/>
<feOffset/>
<feGaussianBlur stdDeviation="5"/>
<feColorMatrix type="matrix" values="0 0 0 0 0.525 0 0 0 0 0.525 0 0 0 0 0.525 0 0 0 0.12 0"/>
<feBlend mode="normal" in2="BackgroundImageFix" result="effect1_dropShadow_0_1"/>
<feBlend mode="normal" in="SourceGraphic" in2="effect1_dropShadow_0_1" result="shape"/>
</filter>
<filter id="filter1_d_0_1" x="0.552734" y="0.552734" width="102.895" height="102.895" filterUnits="userSpaceOnUse" color-interpolation-filters="sRGB">
<feFlood flood-opacity="0" result="BackgroundImageFix"/>
<feColorMatrix in="SourceAlpha" type="matrix" values="0 0 0 0 0 0 0 0 0 0 0 0 0 0 0 0 0 0 127 0" result="hardAlpha"/>
<feOffset/>
<feGaussianBlur stdDeviation="5"/>
<feColorMatrix type="matrix" values="0 0 0 0 0.525 0 0 0 0 0.525 0 0 0 0 0.525 0 0 0 0.12 0"/>
<feBlend mode="normal" in2="BackgroundImageFix" result="effect1_dropShadow_0_1"/>
<feBlend mode="normal" in="SourceGraphic" in2="effect1_dropShadow_0_1" result="shape"/>
</filter>
</defs>
</svg>
