<svg width="104" height="104" viewBox="0 0 104 104" fill="none" xmlns="http://www.w3.org/2000/svg">
<g filter="url(#filter0_d_0_1)">
<circle cx="41.4474" cy="41.4474" r="41.4474" transform="matrix(-1 0 0 1 93.4473 10.5527)" fill="white"/>
</g>
<circle cx="50" cy="50" r="50" transform="matrix(-1 0 0 1 102 2)" stroke="#B9B9B9" stroke-width="2" stroke-dasharray="7 7"/>
<g filter="url(#filter1_d_0_1)">
<circle cx="41.4474" cy="41.4474" r="41.4474" transform="matrix(-1 0 0 1 93.4473 10.5527)" fill="white"/>
</g>
<rect x="46" y="62" width="11" height="6" fill="#01539D"/>
<rect x="46" y="69" width="11" height="1" fill="#01539D"/>
<rect x="47" y="71" width="9" height="1" fill="#01539D"/>
<rect x="48" y="73" width="7" height="1" fill="#01539D"/>
<rect x="49" y="75" width="5" height="1" fill="#01539D"/>
<ellipse cx="51.5" cy="49" rx="14.5" ry="16" fill="#01539D"/>
<line x1="35.0388" y1="47.0546" x2="29.9405" y2="46.947" stroke="#F9B041"/>
<line x1="35.7825" y1="43.0021" x2="30.8523" y2="41.4777" stroke="#F9B041"/>
<line x1="37.436" y1="38.9465" x2="32.7637" y2="36.4406" stroke="#F9B041"/>
<line x1="40.2189" y1="35.3779" x2="36.6261" y2="31.332" stroke="#F9B041"/>
<line x1="43.4682" y1="32.7945" x2="40.5786" y2="28.2691" stroke="#F9B041"/>
<line x1="47.454" y1="31.0752" x2="45.5345" y2="26.1826" stroke="#F9B041"/>
<line x1="67.9998" y1="46.502" x2="72.9998" y2="46.5" stroke="#F9B041"/>
<line x1="67.7553" y1="43.1376" x2="73.0224" y2="41.9344" stroke="#F9B041"/>
<line x1="66.7023" y1="39.5632" x2="70.7023" y2="36.5983" stroke="#F9B041"/>
<line x1="63.6346" y1="36.3394" x2="67.0729" y2="32.6586" stroke="#F9B041"/>
<line x1="59.6118" y1="33.251" x2="62.582" y2="28.7256" stroke="#F9B041"/>
<line x1="55.5372" y1="31.7034" x2="57.5372" y2="26.8108" stroke="#F9B041"/>
<line x1="51.5014" y1="31.0218" x2="51.885" y2="25.9619" stroke="#F9B041"/>
<defs>
<filter id="filter0_d_0_1" x="0.552734" y="0.552734" width="102.895" height="102.895" filterUnits="userSpaceOnUse" color-interpolation-filters="sRGB">
<feFlood flood-opacity="0" result="BackgroundImageFix"/>
<feColorMatrix in="SourceAlpha" type="matrix" values="0 0 0 0 0 0 0 0 0 0 0 0 0 0 0 0 0 0 127 0" result="hardAlpha"/>
<feOffset/>
<feGaussianBlur stdDeviation="5"/>
<feColorMatrix type="matrix" values="0 0 0 0 0.525 0 0 0 0 0.525 0 0 0 0 0.525 0 0 0 0.12 0"/>
<feBlend mode="normal" in2="BackgroundImageFix" result="effect1_dropShadow_0_1"/>
<feBlend mode="normal" in="SourceGraphic" in2="effect1_dropShadow_0_1" result="shape"/>
</filter>
<filter id="filter1_d_0_1" x="0.552734" y="0.552734" width="102.895" height="102.895" filterUnits="userSpaceOnUse" color-interpolation-filters="sRGB">
<feFlood flood-opacity="0" result="BackgroundImageFix"/>
<feColorMatrix in="SourceAlpha" type="matrix" values="0 0 0 0 0 0 0 0 0 0 0 0 0 0 0 0 0 0 127 0" result="hardAlpha"/>
<feOffset/>
<feGaussianBlur stdDeviation="5"/>
<feColorMatrix type="matrix" values="0 0 0 0 0.525 0 0 0 0 0.525 0 0 0 0 0.525 0 0 0 0.12 0"/>
<feBlend mode="normal" in2="BackgroundImageFix" result="effect1_dropShadow_0_1"/>
<feBlend mode="normal" in="SourceGraphic" in2="effect1_dropShadow_0_1" result="shape"/>
</filter>
</defs>
</svg>
