<svg width="104" height="104" viewBox="0 0 104 104" fill="none" xmlns="http://www.w3.org/2000/svg">
<g filter="url(#filter0_d_0_1)">
<circle cx="41.4474" cy="41.4474" r="41.4474" transform="matrix(-1 0 0 1 93.4473 10.5527)" fill="white"/>
</g>
<circle cx="50" cy="50" r="50" transform="matrix(-1 0 0 1 102 2)" stroke="#B9B9B9" stroke-width="2" stroke-dasharray="7 7"/>
<g filter="url(#filter1_d_0_1)">
<circle cx="41.4474" cy="41.4474" r="41.4474" transform="matrix(-1 0 0 1 93.4473 10.5527)" fill="white"/>
</g>
<path d="M74.1816 53.1282C74.1816 53.1282 75.9438 50.5209 76.2865 49.9211C77.1449 47.9969 77.3693 46.6435 78.3338 46.6723C78.813 46.6723 78.1458 47.8141 77.7575 49.3791C77.7575 49.3791 81.752 46.3805 82.3798 47.2079C83.0077 48.0353 83.0471 49.9211 82.3798 50.585C81.7126 51.2489 79.1133 52.4515 78.8949 52.8107C78.6765 53.1699 77.3784 55.6971 77.3784 55.6971L74.1816 53.1282Z" fill="white"/>
<path d="M77.3662 55.8609C77.3334 55.8612 77.3014 55.8499 77.2752 55.8288L74.0875 53.2632C74.0562 53.2377 74.0356 53.2004 74.0299 53.159C74.0242 53.1177 74.034 53.0757 74.0572 53.0419C74.0754 53.0162 75.8194 50.4313 76.1591 49.8604C76.3532 49.4178 76.523 48.9849 76.6747 48.6064C77.163 47.3621 77.4906 46.5314 78.3034 46.5314H78.3368C78.3869 46.5296 78.4367 46.5409 78.4817 46.5644C78.5267 46.5879 78.5655 46.6229 78.5946 46.6661C78.7341 46.8874 78.5946 47.2691 78.361 47.949C78.2579 48.2505 78.1336 48.5904 78.0213 48.9945C79.1344 48.1863 81.8975 46.3166 82.498 47.1119C83.0986 47.9073 83.2381 49.9566 82.4829 50.7039C81.8435 51.2096 81.1588 51.6479 80.4386 52.0124C79.832 52.3331 79.1071 52.7629 79.0253 52.9008C78.8099 53.2535 77.5088 55.7423 77.5088 55.7679C77.498 55.7873 77.4835 55.8042 77.4663 55.8174C77.4491 55.8307 77.4295 55.84 77.4087 55.8449L77.3662 55.8609ZM74.3908 53.0964L77.3207 55.46C77.624 54.8956 78.5794 53.0515 78.7675 52.7404C78.8888 52.5416 79.4014 52.2465 80.284 51.743C80.979 51.3874 81.6419 50.9655 82.2645 50.4826C82.8711 49.8925 82.8529 48.1222 82.2493 47.3236C82.0249 47.0285 80.5084 47.5192 77.8333 49.5269C77.8079 49.5455 77.7777 49.5555 77.7469 49.5555C77.716 49.5555 77.6858 49.5455 77.6604 49.5269C77.6342 49.5094 77.6141 49.4833 77.6031 49.4526C77.5922 49.422 77.591 49.3884 77.5998 49.3569C77.7423 48.7828 77.9213 48.2665 78.0638 47.8496C78.2064 47.4326 78.3671 46.942 78.3307 46.8425H78.3125C77.7059 46.8425 77.439 47.4551 76.9416 48.7219C76.7899 49.1068 76.6201 49.5397 76.4108 50.0047C76.1136 50.5339 74.7487 52.5512 74.3908 53.0964Z" fill="#01539D"/>
<path d="M73.4141 53.3539L74.1086 52.209L77.7573 55.4674L77.0961 56.6989L73.4141 53.3539Z" fill="#01539D"/>
<path d="M77.0967 56.858C77.0613 56.8564 77.0273 56.8429 76.9996 56.8195L73.3054 53.4713C73.2779 53.4459 73.2598 53.411 73.2542 53.3729C73.2487 53.3347 73.2561 53.2957 73.2751 53.2628L73.9697 52.1211C73.9817 52.1021 73.9974 52.0861 74.0157 52.0739C74.0339 52.0617 74.0544 52.0538 74.0758 52.0505C74.0972 52.0473 74.1191 52.0487 74.1399 52.0548C74.1608 52.0609 74.1803 52.0714 74.1971 52.0858L77.8367 55.3442C77.8647 55.3676 77.8838 55.401 77.8905 55.4381C77.8972 55.4752 77.891 55.5136 77.8731 55.5462L77.2119 56.7746C77.2008 56.7953 77.1856 56.8132 77.1672 56.8271C77.1489 56.8409 77.1279 56.8504 77.1058 56.8548L77.0967 56.858ZM73.6087 53.3205L77.0512 56.4474L77.5577 55.4853L74.1395 52.4321L73.6087 53.3205Z" fill="#01539D"/>
<path d="M42.8634 45.2559C42.8634 45.2559 34.5351 47.9492 33.6249 50.0068C32.9696 51.4849 31.1674 63.1819 30.952 68.9693C30.7305 74.9415 30.5 77.9543 30.5 77.9543H36.6255C36.6255 77.9543 37.2323 71.7472 37.3173 69.4829C37.4141 67.8127 37.5933 66.1486 37.8543 64.4972C37.8543 64.4972 38.5855 68.3743 38.5369 69.7836C38.4884 71.1929 38.3448 77.9543 38.3448 77.9543H57.4629C57.4629 77.9543 56.4859 69.0288 56.583 67.82C56.6801 66.6112 57.7966 61.4751 57.7966 61.4751L60.1358 48.7353C60.1358 48.7353 52.2202 45.4094 51.2766 45.0586C50.333 44.7079 42.8634 45.2559 42.8634 45.2559Z" fill="#F9B041"/>
<path d="M48.0911 77.9553C48.0491 77.9553 48.0088 77.9396 47.979 77.9118C47.9493 77.884 47.9326 77.8462 47.9326 77.8068V67.7139C47.9326 67.6745 47.9493 67.6367 47.979 67.6089C48.0088 67.5811 48.0491 67.5654 48.0911 67.5654C48.1329 67.5662 48.1727 67.5821 48.2023 67.6097C48.2318 67.6374 48.2488 67.6747 48.2496 67.7139V77.8068C48.2488 77.846 48.2318 77.8833 48.2023 77.9109C48.1727 77.9386 48.1329 77.9545 48.0911 77.9553Z" fill="#01539D"/>
<path d="M43.8396 43.0684L51.0096 43.0908L50.8822 45.9868H45.8201L43.3604 44.7425L43.8396 43.0684Z" fill="#01539D"/>
<path d="M50.882 46.1372H45.8199C45.7989 46.142 45.7772 46.142 45.7562 46.1372L43.2965 44.8929C43.2631 44.8767 43.2364 44.8483 43.2214 44.8129C43.2063 44.7775 43.2039 44.7375 43.2146 44.7004L43.6938 43.0263C43.7035 42.9936 43.7229 42.9651 43.7491 42.9449C43.7753 42.9246 43.8069 42.9139 43.8394 42.9141L51.0094 42.9397C51.0297 42.9392 51.05 42.9432 51.0688 42.9515C51.0876 42.9598 51.1046 42.9722 51.1186 42.9878C51.1334 43.0032 51.1448 43.0217 51.1522 43.0422C51.1595 43.0627 51.1625 43.0846 51.161 43.1065L51.0336 45.9929C51.0299 46.0326 51.0122 46.0694 50.9842 46.096C50.9561 46.1227 50.9197 46.1374 50.882 46.1372ZM45.8533 45.8165H50.7394L50.8517 43.2508L43.9516 43.2284L43.5452 44.6555L45.8533 45.8165Z" fill="#01539D"/>
<path d="M52.8749 35.714C53.2358 34.732 53.4496 33.6965 53.5088 32.6448C53.5406 32.2929 53.5406 31.9385 53.5088 31.5865C53.4143 31.11 53.2897 30.6407 53.1357 30.1818C53.328 29.8774 53.4488 29.5288 53.4878 29.1651C53.5268 28.8013 53.4831 28.433 53.3602 28.0908L52.8809 28.7771C52.9673 28.2418 52.9429 27.6931 52.8094 27.1688C52.6759 26.6444 52.4364 26.157 52.1075 25.7399C51.5221 26.4751 50.729 26.9922 49.8449 27.2152C50.1361 26.9729 50.3659 26.6579 50.5136 26.2986C50.6613 25.9392 50.7223 25.5467 50.6911 25.1562C50.0997 25.7752 49.205 25.9324 48.3739 25.9452C47.5429 25.958 46.6936 25.8554 45.8899 26.0799C45.1259 26.3078 44.4416 26.7671 43.9215 27.4012C43.4969 27.9112 43.4908 28.482 42.9782 28.9086C41.765 29.9252 41.6558 30.8649 41.8439 32.4588C42.0137 33.9181 42.4869 35.3452 42.6234 36.7948C44.2157 36.8975 45.8232 37.0418 47.4337 37.0161C48.7106 37.0065 52.1925 37.3048 52.8749 35.714Z" fill="#01539D"/>
<path d="M48.7376 37.1992H48.0491C47.8126 37.1992 47.6033 37.1992 47.4425 37.1992C46.1323 37.2184 44.816 37.1286 43.5391 37.0388L42.6292 36.9779C42.5932 36.9752 42.5593 36.9592 42.5333 36.9329C42.5073 36.9066 42.4908 36.8714 42.4866 36.8336C42.3982 36.0775 42.2665 35.3278 42.0923 34.5886C41.9302 33.899 41.8016 33.2011 41.7071 32.4976C41.51 30.8299 41.6404 29.8517 42.8991 28.7998C43.1242 28.594 43.2981 28.333 43.4056 28.0397C43.5096 27.7778 43.6497 27.5335 43.8211 27.3149C44.3568 26.6563 45.0616 26.1761 45.8502 25.9326C46.4678 25.7938 47.1006 25.7452 47.7307 25.7883C47.946 25.7883 48.1583 25.7883 48.3706 25.7883C49.3958 25.7883 50.1207 25.5317 50.5847 25.0475C50.6049 25.0259 50.6304 25.0109 50.6583 25.0041C50.6862 24.9973 50.7154 24.999 50.7424 25.009C50.7697 25.0197 50.7935 25.0383 50.8112 25.0627C50.8289 25.0871 50.8398 25.1163 50.8425 25.1469C50.8973 25.7701 50.732 26.3927 50.3785 26.8948C51.0011 26.6274 51.5513 26.201 51.9799 25.6536C51.9941 25.6359 52.0118 25.6215 52.0316 25.6116C52.0515 25.6016 52.0732 25.5963 52.0951 25.5959C52.1172 25.5958 52.139 25.601 52.1589 25.611C52.1789 25.621 52.1964 25.6355 52.2104 25.6536C52.7794 26.3718 53.0852 27.2825 53.0718 28.2193L53.2234 28.0012C53.2393 27.9777 53.261 27.9593 53.2862 27.9479C53.3113 27.9366 53.3389 27.9329 53.366 27.9371C53.3928 27.9404 53.4183 27.9514 53.4397 27.9689C53.4611 27.9864 53.4775 28.0098 53.4873 28.0365C53.6159 28.3898 53.6651 28.7698 53.6309 29.1467C53.5966 29.5235 53.48 29.8867 53.2901 30.2077C53.4444 30.652 53.5641 31.109 53.648 31.5739C53.6817 31.9365 53.6817 32.3017 53.648 32.6643C53.591 33.7332 53.3729 34.7855 53.002 35.7816C52.4652 37.0581 50.3481 37.1992 48.7376 37.1992ZM47.582 36.8785H48.0522C49.4959 36.8977 52.1831 36.9362 52.7321 35.6534C53.0827 34.6873 53.2874 33.6689 53.3387 32.6355C53.3709 32.2932 53.3709 31.9483 53.3387 31.606C53.3387 31.4905 53.0718 30.4771 52.999 30.2911C52.9788 30.2635 52.9679 30.2297 52.9679 30.1949C52.9679 30.16 52.9788 30.1262 52.999 30.0987C53.1527 29.8601 53.2589 29.5908 53.3111 29.3074C53.3632 29.024 53.3602 28.7323 53.3023 28.4502L52.999 28.88C52.9784 28.9085 52.9493 28.929 52.9164 28.938C52.8835 28.947 52.8486 28.944 52.8175 28.9296C52.7864 28.9152 52.7607 28.8901 52.7447 28.8584C52.7287 28.8267 52.7231 28.7903 52.729 28.7549C52.8073 28.274 52.7916 27.7812 52.6831 27.3069C52.5747 26.8326 52.3756 26.3867 52.0982 25.9968C51.5104 26.686 50.7399 27.1721 49.8871 27.3919C49.8528 27.4016 49.8163 27.3983 49.784 27.3825C49.7518 27.3667 49.7258 27.3394 49.7106 27.3054C49.6955 27.2714 49.6921 27.2329 49.701 27.1965C49.71 27.1601 49.7308 27.1282 49.7597 27.1064C49.9908 26.9129 50.1807 26.6701 50.3171 26.3938C50.4534 26.1175 50.5333 25.8139 50.5513 25.5029C50.0357 25.8973 49.323 26.0962 48.3828 26.109C48.1644 26.109 47.949 26.109 47.7307 26.109C47.1281 26.0666 46.523 26.1119 45.9321 26.2437C45.1969 26.4681 44.5393 26.9138 44.0395 27.5266C43.8883 27.7209 43.7637 27.9369 43.6695 28.168C43.539 28.5085 43.3306 28.8093 43.0629 29.0435C41.9103 30.0056 41.7981 30.8716 41.9831 32.4495C42.065 33.1358 42.2167 33.8317 42.3623 34.5052C42.5278 35.2136 42.6574 35.9309 42.7505 36.654L43.5391 36.7053C44.8099 36.7951 46.1262 36.8849 47.4213 36.8656L47.582 36.8785Z" fill="#01539D"/>
<path d="M44.3366 35.9607C44.1182 34.1102 41.246 33.5522 41.3036 35.7234C41.3032 36.4833 41.5579 37.2186 42.0224 37.7984C42.2552 38.0804 42.5619 38.283 42.9037 38.3806C43.2454 38.4782 43.6069 38.4664 43.9423 38.3468" fill="white"/>
<path d="M43.3906 38.6097C43.1107 38.604 42.8349 38.5376 42.5803 38.4146C42.3257 38.2915 42.0978 38.1145 41.9105 37.8945C41.4258 37.2893 41.1583 36.5228 41.1553 35.7297C41.1189 34.6553 41.7619 34.216 42.3685 34.1646C42.8683 34.1266 43.3636 34.2879 43.7565 34.6168C44.1495 34.9457 44.4117 35.4182 44.4916 35.9414C44.4958 35.9835 44.4842 36.0256 44.4592 36.0586C44.4342 36.0917 44.3979 36.1129 44.3581 36.1178C44.3186 36.1216 44.2792 36.1095 44.2477 36.084C44.2162 36.0584 44.195 36.0212 44.1883 35.9799C44.1166 35.5414 43.8943 35.1463 43.564 34.8705C43.2338 34.5947 42.8188 34.4575 42.3988 34.4854C41.7922 34.5367 41.4495 34.9857 41.4738 35.7201C41.4714 36.4348 41.7053 37.1279 42.1349 37.6796C42.3459 37.9387 42.6249 38.1255 42.9365 38.2163C43.2482 38.3071 43.5784 38.2978 43.885 38.1896C43.922 38.1736 43.9635 38.1738 44.0004 38.19C44.0373 38.2062 44.0667 38.2372 44.0821 38.2762C44.0966 38.3158 44.0961 38.3598 44.0809 38.3992C44.0657 38.4385 44.0368 38.4702 44.0002 38.4878C43.806 38.5683 43.5992 38.6096 43.3906 38.6097Z" fill="#01539D"/>
<path d="M50.5913 35.9607C50.8097 34.1102 53.6819 33.5522 53.6091 35.7234C53.6147 36.4808 53.3665 37.2159 52.9085 37.7984C52.6754 38.08 52.3688 38.2824 52.0271 38.38C51.6854 38.4775 51.3241 38.466 50.9886 38.3468" fill="white"/>
<path d="M51.5376 38.6097C51.3299 38.6099 51.1241 38.5685 50.931 38.4878C50.8933 38.4715 50.8633 38.4401 50.8474 38.4004C50.8315 38.3608 50.831 38.3162 50.846 38.2762C50.8615 38.2372 50.8908 38.2062 50.9278 38.19C50.9647 38.1738 51.0062 38.1736 51.0432 38.1896C51.3502 38.2985 51.681 38.3082 51.9933 38.2173C52.3055 38.1265 52.5851 37.9393 52.7963 37.6796C53.2259 37.1279 53.4598 36.4348 53.4574 35.7201C53.4817 34.9857 53.1541 34.5367 52.5324 34.4854C52.1124 34.4575 51.6974 34.5947 51.3672 34.8705C51.0369 35.1463 50.8146 35.5414 50.7429 35.9799C50.7362 36.0212 50.715 36.0584 50.6835 36.084C50.652 36.1095 50.6126 36.1216 50.5731 36.1178C50.5535 36.1154 50.5346 36.1089 50.5174 36.0987C50.5002 36.0886 50.4851 36.0749 50.4729 36.0584C50.4608 36.042 50.4519 36.0232 50.4467 36.0031C50.4415 35.983 50.4401 35.962 50.4426 35.9414C50.5225 35.4182 50.7847 34.9457 51.1777 34.6168C51.5707 34.2879 52.0659 34.1266 52.5657 34.1646C53.1723 34.216 53.8062 34.6553 53.7789 35.7297C53.7822 36.5217 53.5188 37.2891 53.0359 37.8945C52.8466 38.117 52.6157 38.2955 52.3578 38.4186C52.0999 38.5418 51.8205 38.6068 51.5376 38.6097Z" fill="#01539D"/>
<path d="M44.1152 45.1565C44.1152 45.1565 45.4407 45.8749 47.7184 45.9583C49.9962 46.0417 50.3753 45.3874 50.3753 45.3874L50.3207 44.1046L50.1964 41.1091L50.0781 38.3093L44.8765 38.1201L44.6278 40.3972L44.552 41.138L44.1152 45.1565Z" fill="white"/>
<path d="M48.1102 46.1374H47.7159C45.429 46.054 44.1006 45.3485 44.046 45.3196C44.0188 45.3045 43.9965 45.2811 43.982 45.2526C43.9674 45.224 43.9612 45.1915 43.9641 45.1592L44.7254 38.1036C44.7269 38.0834 44.7322 38.0636 44.741 38.0456C44.7497 38.0275 44.7618 38.0115 44.7765 37.9983C44.7911 37.9852 44.8081 37.9753 44.8264 37.9691C44.8447 37.963 44.864 37.9607 44.8831 37.9625L50.0816 38.1549C50.1196 38.1564 50.1557 38.1725 50.1831 38.2003C50.2105 38.2281 50.2273 38.2656 50.2303 38.3057L50.5336 45.3934C50.536 45.4249 50.5285 45.4565 50.5123 45.4832C50.4638 45.5409 50.0634 46.1374 48.1102 46.1374ZM44.2765 45.0726C45.3739 45.5386 46.5426 45.7886 47.725 45.8103C49.5448 45.8776 50.1029 45.4607 50.2212 45.342L49.933 38.4692L45.0105 38.2896L44.2765 45.0726Z" fill="#01539D"/>
<path d="M44.5522 41.128C44.9677 41.8123 45.5365 42.3774 46.2083 42.7732C47.3062 43.4692 48.9562 44.2677 50.321 44.0978L50.1966 41.1023C49.1969 41.1965 48.1901 41.1664 47.197 41.0125C46.3145 40.9403 45.4479 40.7239 44.6281 40.3711L44.5522 41.128Z" fill="#01539D"/>
<path d="M49.9511 44.2803C48.5317 44.2803 46.9849 43.4433 46.1447 42.9109C45.4477 42.5037 44.8593 41.9168 44.4341 41.2047C44.4189 41.1754 44.4125 41.1418 44.4159 41.1085L44.4918 40.3645C44.4946 40.3393 44.5029 40.3152 44.5161 40.2941C44.5293 40.2729 44.5469 40.2553 44.5676 40.2426C44.5891 40.2308 44.6131 40.2246 44.6373 40.2246C44.6616 40.2246 44.6855 40.2308 44.7071 40.2426C45.5136 40.5819 46.3647 40.7874 47.2305 40.8519C48.2123 41.0075 49.2082 41.0377 50.1968 40.9417C50.2385 40.9382 50.2798 40.952 50.3121 40.9802C50.3428 41.0102 50.3613 41.0516 50.3636 41.0957L50.488 44.0911C50.4898 44.1316 50.477 44.1713 50.4523 44.2022C50.4275 44.2332 50.3926 44.2531 50.3545 44.2579C50.2206 44.2734 50.0859 44.2809 49.9511 44.2803ZM44.7223 41.0925C45.122 41.7354 45.6645 42.265 46.3025 42.6351C47.1608 43.1803 48.7774 44.0526 50.1786 43.9532L50.0664 41.2785C49.1082 41.3538 48.1451 41.3184 47.1942 41.1726C46.3659 41.1029 45.55 40.9175 44.7678 40.621L44.7223 41.0925Z" fill="#01539D"/>
<path d="M52.0167 30.9749L51.7983 37.6489C51.79 37.9344 51.7534 38.2181 51.6891 38.4955C51.4703 39.4361 50.9519 40.2683 50.2212 40.8523C49.4905 41.4363 48.5919 41.7366 47.6765 41.7026L47.2215 41.6962C46.3607 41.6646 45.5327 41.3392 44.8613 40.7686C44.19 40.198 43.7113 39.413 43.497 38.5308C43.4042 38.1411 43.3633 37.7395 43.3757 37.3378L43.5941 30.667C43.5941 30.667 44.5677 32.0268 47.3914 32.0268C48.9875 32.0395 50.5667 31.6803 52.0167 30.9749Z" fill="white"/>
<path d="M47.3969 32.1673H47.3272H47.315C45.8035 32.1696 44.8228 31.7792 44.2242 31.4093L44.2358 31.0547L47.3969 32.1673ZM43.5954 30.6576L43.4768 30.5723L43.5954 30.6576Z" fill="#01539D" stroke="#2B70AE"/>
<path d="M43.1143 44.5723L47.9883 67.0829L49.0953 61.4865L51.6734 44.5723L47.7183 45.9577L43.1143 44.5723Z" fill="#01539D"/>
<path d="M47.9888 67.243C47.9544 67.2426 47.9211 67.2301 47.8942 67.2074C47.8673 67.1848 47.8483 67.1533 47.8402 67.1179L42.9753 44.6073C42.9692 44.5804 42.9699 44.5523 42.9774 44.5259C42.9848 44.4994 42.9987 44.4755 43.0177 44.4565C43.0367 44.4373 43.0602 44.4236 43.0857 44.4169C43.1112 44.4101 43.138 44.4105 43.1633 44.418L47.7128 45.7907L51.6223 44.4212C51.6469 44.4122 51.6732 44.4101 51.6988 44.4151C51.7243 44.4202 51.7482 44.4322 51.7679 44.4501C51.7878 44.4679 51.8029 44.4909 51.812 44.5167C51.821 44.5426 51.8236 44.5704 51.8195 44.5976L49.2445 61.5119L48.1314 67.1147C48.124 67.1502 48.1057 67.182 48.0793 67.2052C48.053 67.2284 48.0201 67.2417 47.9858 67.243H47.9888ZM43.321 44.7933L47.9827 66.3418L48.9472 61.4638L51.4828 44.8189L47.7674 46.1018C47.7388 46.1114 47.7081 46.1114 47.6794 46.1018L43.321 44.7933Z" fill="#01539D"/>
<path d="M46.0083 46.6604L46.8242 48.4114L45.9507 57.3753L48.0647 66.243L49.7632 57.3817L48.4317 48.3088L49.0959 46.933L47.7189 45.958L46.0083 46.6604Z" fill="white"/>
<path d="M48.0674 66.4031C48.0334 66.4029 48.0004 66.3908 47.9736 66.3688C47.9467 66.3467 47.9275 66.316 47.9188 66.2812L45.7957 57.4168C45.7927 57.3977 45.7927 57.3781 45.7957 57.359L46.6631 48.4433L45.8715 46.7307C45.8633 46.7099 45.859 46.6875 45.859 46.6649C45.859 46.6424 45.8633 46.62 45.8715 46.5992C45.879 46.5783 45.8907 46.5593 45.9059 46.5438C45.9212 46.5283 45.9394 46.5165 45.9595 46.5094L47.6671 45.807C47.6886 45.7952 47.7125 45.7891 47.7368 45.7891C47.7611 45.7891 47.785 45.7952 47.8066 45.807L49.1836 46.7692C49.2138 46.7913 49.2357 46.8241 49.2451 46.8617C49.2546 46.8994 49.251 46.9393 49.2351 46.9744L48.5921 48.3054L49.9145 57.3622C49.9192 57.3801 49.9192 57.3989 49.9145 57.4168L48.2191 66.2812C48.2117 66.3166 48.1934 66.3485 48.167 66.3717C48.1407 66.3949 48.1078 66.4082 48.0735 66.4095L48.0674 66.4031ZM46.1051 57.3622L48.0492 65.5147L49.6112 57.3622L48.2828 48.3214C48.2774 48.2874 48.2827 48.2525 48.2979 48.222L48.9045 46.9744L47.6913 46.1245L46.2082 46.7339L46.9482 48.3374C46.9623 48.3649 46.9677 48.3964 46.9634 48.4272L46.1051 57.3622Z" fill="#01539D"/>
<path d="M51.0096 43.0938C50.9095 43.0938 47.6733 45.9577 47.6733 45.9577L49.666 48.4111L51.6557 44.5626L51.0096 43.0938Z" fill="white"/>
<path d="M49.6812 48.5713C49.6593 48.5717 49.6377 48.567 49.6178 48.5576C49.5979 48.5482 49.5802 48.5342 49.5659 48.5168L47.5732 46.0601C47.5478 46.0279 47.5348 45.9866 47.5368 45.9447C47.5383 45.9235 47.544 45.9029 47.5533 45.8841C47.5627 45.8653 47.5757 45.8488 47.5914 45.8356C50.8549 42.9492 50.9277 42.9492 51.0096 42.9492C51.038 42.9492 51.0659 42.9575 51.09 42.9734C51.1142 42.9893 51.1336 43.012 51.1461 43.039L51.8103 44.5207C51.8215 44.5429 51.8273 44.5677 51.8273 44.5929C51.8273 44.618 51.8215 44.6428 51.8103 44.665L49.8207 48.5136C49.8087 48.5364 49.7917 48.556 49.7711 48.5705C49.7505 48.585 49.727 48.594 49.7024 48.5969L49.6812 48.5713ZM47.9038 45.9767L49.6539 48.1319L51.501 44.5688L50.9459 43.3277C50.491 43.6933 48.9502 45.0467 47.9038 45.9767Z" fill="#01539D"/>
<path d="M43.8391 43.0684C43.9453 43.0684 47.7183 45.9548 47.7183 45.9548L45.4163 48.4082L43.1143 44.5597L43.8391 43.0684Z" fill="white"/>
<path d="M45.4167 48.5718H45.4015C45.3788 48.5691 45.357 48.561 45.3376 48.5483C45.3182 48.5355 45.3017 48.5184 45.2893 48.4981L42.9872 44.6495C42.9745 44.6255 42.9678 44.5985 42.9678 44.571C42.9678 44.5434 42.9745 44.5164 42.9872 44.4924L43.7121 42.9851C43.7242 42.9587 43.7432 42.9365 43.7669 42.9212C43.7905 42.9058 43.8178 42.898 43.8456 42.8985C43.9062 42.8985 44.0002 42.8985 47.8158 45.8169C47.833 45.8313 47.8473 45.8492 47.8577 45.8696C47.8681 45.89 47.8745 45.9125 47.8764 45.9356C47.878 45.9584 47.8751 45.9813 47.8677 46.0029C47.8604 46.0244 47.8489 46.0441 47.834 46.0607L45.5319 48.5173C45.5173 48.5343 45.4995 48.5479 45.4797 48.5573C45.4598 48.5667 45.4384 48.5716 45.4167 48.5718ZM43.2936 44.5662L45.447 48.1581L47.4912 45.9773C46.1992 44.9895 44.3945 43.6233 43.9062 43.2897L43.2936 44.5662Z" fill="#01539D"/>
<path d="M43.1147 44.5723C43.1147 44.5723 47.3154 64.4852 48.0857 66.496C48.0857 66.496 39.2476 50.6145 39.1991 50.3034C39.1505 49.9923 40.4669 48.6998 40.4669 48.6998L39.3932 48.1899L40.3607 46.3426L43.1147 44.5723Z" fill="#F9B041"/>
<path d="M48.0858 66.6633C48.0597 66.6631 48.034 66.656 48.0112 66.6425C47.9884 66.6291 47.9692 66.6097 47.9554 66.5863C45.8778 62.8532 39.099 50.6502 39.0475 50.3359C38.9959 50.0216 39.6116 49.3385 40.197 48.7323L39.3356 48.3282C39.316 48.3191 39.2984 48.3059 39.2838 48.2894C39.2692 48.2728 39.2579 48.2533 39.2507 48.232C39.2425 48.2117 39.2383 48.1899 39.2383 48.1679C39.2383 48.1458 39.2425 48.124 39.2507 48.1037L40.2182 46.2564C40.2324 46.2325 40.2509 46.2118 40.2728 46.1955L43.0267 44.4348C43.0485 44.4237 43.0724 44.418 43.0965 44.418C43.1207 44.418 43.1445 44.4237 43.1663 44.4348C43.1881 44.4451 43.2075 44.4605 43.2227 44.48C43.238 44.4995 43.2488 44.5224 43.2542 44.5471C43.2967 44.7459 47.461 64.4696 48.2162 66.4484C48.2308 66.4855 48.2314 66.5272 48.2179 66.5648C48.2044 66.6023 48.1777 66.633 48.1434 66.6504C48.1253 66.6592 48.1057 66.6636 48.0858 66.6633ZM39.5934 48.1134L40.5033 48.5495C40.5261 48.5607 40.546 48.5776 40.5613 48.5987C40.5766 48.6198 40.5867 48.6446 40.5909 48.6708C40.5951 48.697 40.5932 48.7239 40.5853 48.7492C40.5774 48.7744 40.5639 48.7973 40.5458 48.8157C39.9665 49.3866 39.3326 50.1178 39.3326 50.2942C39.4691 50.6823 44.8071 60.3196 47.5459 65.2425C46.3327 60.6435 43.4241 46.8401 42.9964 44.8325L40.473 46.4585L39.5934 48.1134Z" fill="#01539D"/>
<path d="M51.6709 44.5723C51.6709 44.5723 48.8563 64.4852 48.0859 66.496C48.0859 66.496 55.541 50.6145 55.5896 50.3034C55.6381 49.9923 54.3218 48.6998 54.3218 48.6998L55.3955 48.1899L54.4279 46.3426L51.6709 44.5723Z" fill="#F9B041"/>
<path d="M48.0855 66.6633C48.0645 66.6679 48.0428 66.6679 48.0218 66.6633C47.9867 66.6458 47.9591 66.615 47.9445 66.577C47.9299 66.5389 47.9293 66.4965 47.9429 66.4581C48.6981 64.4857 51.4946 44.7684 51.5218 44.5696C51.5257 44.5435 51.5354 44.5188 51.5502 44.4976C51.565 44.4764 51.5844 44.4593 51.6068 44.4477C51.6289 44.4359 51.6533 44.4297 51.6781 44.4297C51.7028 44.4297 51.7272 44.4359 51.7493 44.4477L54.5063 46.2084C54.528 46.2239 54.5457 46.2448 54.5579 46.2693L55.5284 48.1166C55.5366 48.1369 55.5408 48.1587 55.5408 48.1808C55.5408 48.2028 55.5366 48.2246 55.5284 48.2449C55.5224 48.2664 55.5119 48.2861 55.4978 48.3028C55.4836 48.3194 55.4661 48.3325 55.4465 48.3411L54.5821 48.7516C55.1645 49.3449 55.7771 50.0345 55.7286 50.3552C55.6801 50.6759 49.4594 63.9373 48.2129 66.596C48.1983 66.6172 48.1791 66.6343 48.1569 66.6461C48.1348 66.6578 48.1103 66.6637 48.0855 66.6633ZM51.7888 44.855C51.4855 46.9011 49.5868 60.2683 48.6041 65.0598C50.9456 60.0631 55.3313 50.6759 55.4435 50.3071C55.4253 50.1531 54.7945 49.4219 54.2303 48.851C54.2122 48.8327 54.1987 48.81 54.1907 48.7848C54.1828 48.7597 54.1808 48.7329 54.1848 48.7067C54.1887 48.6803 54.1988 48.6552 54.2141 48.634C54.2295 48.6127 54.2497 48.5958 54.2728 48.5849L55.1827 48.1487L54.3122 46.4585L51.7888 44.855Z" fill="#01539D"/>
<path d="M38.1713 76.9448C38.1316 76.9416 38.0947 76.9219 38.0686 76.8901C38.0425 76.8583 38.0292 76.8169 38.0318 76.7749C38.0318 76.7203 38.4109 71.5088 38.4746 70.3061C38.5261 69.3183 38.3199 68.0868 38.0075 66.2235C37.9408 65.8226 37.868 65.3896 37.7922 64.9406C37.3736 62.3589 34.2041 51.7915 34.1738 51.676C34.163 51.6361 34.1673 51.5934 34.1857 51.5568C34.2041 51.5201 34.2353 51.4925 34.2726 51.4796C34.3099 51.4667 34.3504 51.4696 34.3858 51.4877C34.4211 51.5058 34.4484 51.5377 34.4619 51.5766C34.5923 52.0128 37.6678 62.2819 38.1015 64.8861C38.1773 65.3511 38.2471 65.7809 38.3169 66.185C38.6202 68.0708 38.8416 69.3151 38.787 70.3382C38.7203 71.5473 38.3472 76.7524 38.3442 76.8133C38.3375 76.8549 38.3156 76.892 38.2832 76.9166C38.2509 76.9412 38.2107 76.9513 38.1713 76.9448Z" fill="#01539D"/>
<path d="M60.2179 48.7578C60.2179 48.7578 67.0058 60.1783 67.8277 61.3746C69.9508 58.2027 73.1536 53.1131 73.1536 53.1131L77.688 57.2342C77.688 57.2342 71.531 71.6662 67.1089 70.2422C62.6868 68.8183 55.5835 59.1168 55.5835 59.1168L60.2179 48.7578Z" fill="#F9B041"/>
<path d="M57.2303 65.1524H57.1939C57.1555 65.1418 57.1226 65.1157 57.1022 65.0797C57.0818 65.0438 57.0755 65.0008 57.0847 64.96L59.5111 54.4856C59.5153 54.465 59.5235 54.4456 59.5351 54.4285C59.5467 54.4114 59.5614 54.397 59.5785 54.3862C59.5955 54.3754 59.6145 54.3684 59.6342 54.3656C59.6539 54.3628 59.674 54.3644 59.6931 54.3701C59.732 54.38 59.7657 54.4058 59.7867 54.4418C59.8078 54.4779 59.8144 54.5213 59.8053 54.5625L57.3789 65.0337C57.3702 65.0682 57.3508 65.0985 57.3239 65.12C57.297 65.1415 57.264 65.1529 57.2303 65.1524Z" fill="#01539D"/>
<path d="M77.7578 49.3955C77.7578 49.3955 79.4047 50.178 78.7587 51.804L77.7578 49.3955Z" fill="white"/>
<path d="M78.7641 51.965C78.7451 51.9695 78.7255 51.9695 78.7065 51.965C78.6701 51.948 78.6413 51.9169 78.6261 51.8781C78.6108 51.8393 78.6103 51.7957 78.6246 51.7565C79.21 50.2909 77.7663 49.5853 77.7147 49.5564C77.6953 49.5487 77.6777 49.5368 77.6628 49.5216C77.6479 49.5064 77.6362 49.4881 77.6283 49.4678C77.6203 49.4476 77.6164 49.4259 77.6167 49.404C77.617 49.3821 77.6216 49.3605 77.6301 49.3406C77.6386 49.3206 77.6509 49.3027 77.6662 49.288C77.6815 49.2732 77.6995 49.2619 77.719 49.2548C77.7386 49.2477 77.7594 49.2449 77.78 49.2466C77.8006 49.2482 77.8207 49.2544 77.8391 49.2646C77.8573 49.2646 79.6134 50.1305 78.9158 51.8784C78.9015 51.9071 78.8794 51.9307 78.8524 51.9461C78.8254 51.9615 78.7947 51.9681 78.7641 51.965Z" fill="#01539D"/>
<defs>
<filter id="filter0_d_0_1" x="0.552734" y="0.552734" width="102.895" height="102.895" filterUnits="userSpaceOnUse" color-interpolation-filters="sRGB">
<feFlood flood-opacity="0" result="BackgroundImageFix"/>
<feColorMatrix in="SourceAlpha" type="matrix" values="0 0 0 0 0 0 0 0 0 0 0 0 0 0 0 0 0 0 127 0" result="hardAlpha"/>
<feOffset/>
<feGaussianBlur stdDeviation="5"/>
<feColorMatrix type="matrix" values="0 0 0 0 0.525 0 0 0 0 0.525 0 0 0 0 0.525 0 0 0 0.12 0"/>
<feBlend mode="normal" in2="BackgroundImageFix" result="effect1_dropShadow_0_1"/>
<feBlend mode="normal" in="SourceGraphic" in2="effect1_dropShadow_0_1" result="shape"/>
</filter>
<filter id="filter1_d_0_1" x="0.552734" y="0.552734" width="102.895" height="102.895" filterUnits="userSpaceOnUse" color-interpolation-filters="sRGB">
<feFlood flood-opacity="0" result="BackgroundImageFix"/>
<feColorMatrix in="SourceAlpha" type="matrix" values="0 0 0 0 0 0 0 0 0 0 0 0 0 0 0 0 0 0 127 0" result="hardAlpha"/>
<feOffset/>
<feGaussianBlur stdDeviation="5"/>
<feColorMatrix type="matrix" values="0 0 0 0 0.525 0 0 0 0 0.525 0 0 0 0 0.525 0 0 0 0.12 0"/>
<feBlend mode="normal" in2="BackgroundImageFix" result="effect1_dropShadow_0_1"/>
<feBlend mode="normal" in="SourceGraphic" in2="effect1_dropShadow_0_1" result="shape"/>
</filter>
</defs>
</svg>
