<svg width="104" height="104" viewBox="0 0 104 104" fill="none" xmlns="http://www.w3.org/2000/svg">
<g filter="url(#filter0_d_11133_4880)">
<circle cx="41.4474" cy="41.4474" r="41.4474" transform="matrix(-1 0 0 1 93.4473 10.5527)" fill="white"/>
</g>
<circle cx="50" cy="50" r="50" transform="matrix(-1 0 0 1 102 2)" stroke="#B9B9B9" stroke-width="2" stroke-dasharray="7 7"/>
<g filter="url(#filter1_d_11133_4880)">
<circle cx="41.4474" cy="41.4474" r="41.4474" transform="matrix(-1 0 0 1 93.4473 10.5527)" fill="white"/>
</g>
<g clip-path="url(#clip0_11133_4880)">
<path d="M45.147 68.5699C44.6493 64.0575 44.1515 59.5948 43.6537 55.0948C42.7577 55.0948 41.8866 55.0699 41.028 55.1072C40.5426 55.1196 40.2564 54.9332 40.0075 54.5354C38.7507 52.447 37.4814 50.3586 36.212 48.2826C36.0378 47.9843 35.8263 47.6984 36.0254 47.3379C36.2245 46.9774 36.5729 46.9898 36.9214 46.9898C38.7258 46.9898 40.5302 46.9898 42.3346 46.9898C42.5711 46.9898 42.7204 46.9525 42.82 46.6915C43.9524 43.6583 46.0555 41.5948 49.1168 40.5257C49.179 40.5009 49.2288 40.4636 49.2785 40.4387C46.043 38.1141 46.3417 34.0119 48.4946 31.9608C50.7719 29.773 54.306 29.8973 56.3967 32.2343C58.338 34.3973 58.3878 38.1887 55.3265 40.4014C55.4509 40.4511 55.5505 40.5009 55.65 40.5382C58.5993 41.6321 60.6651 43.6459 61.7726 46.592C61.8846 46.8904 62.0339 46.9898 62.3451 46.9774C63.1788 46.9525 64.025 46.9649 64.8837 46.9649C64.7468 45.2246 64.4606 43.5713 63.8508 41.9801C63.7513 41.7191 63.5895 41.7067 63.353 41.6942C62.2082 41.6569 61.3246 40.7868 61.2748 39.7053C61.2251 38.6114 61.9842 37.679 63.0419 37.5174C64.1619 37.3434 65.1699 38.0147 65.4312 39.1086C65.5806 39.7301 65.4437 40.302 65.0828 40.8365C65.0081 40.9608 64.9335 41.1597 64.9832 41.284C65.6801 42.9622 66.0037 44.7274 66.1655 46.5299C66.1779 46.6542 66.2028 46.7785 66.2277 46.9525C66.7628 46.9525 67.2979 46.9525 67.8454 46.9525C68.6045 46.9649 68.8908 47.4497 68.4925 48.0962C67.1859 50.2591 65.8668 52.4221 64.5601 54.5851C64.3486 54.9332 64.0873 55.0823 63.689 55.0699C62.8055 55.045 61.9219 55.0699 60.9762 55.0699C60.4784 59.5575 59.9806 64.0202 59.4829 68.545C59.8811 68.545 60.2295 68.5326 60.5655 68.545C61.0508 68.5699 61.2873 68.7812 61.2873 69.266C61.2997 70.4594 61.2997 71.6652 61.2873 72.8586C61.2873 73.3185 61.0508 73.5422 60.6029 73.5795C60.4784 73.592 60.354 73.5795 60.2295 73.5795C54.9531 73.5795 49.6768 73.5795 44.4128 73.5795C43.5044 73.5795 43.3675 73.4304 43.3675 72.5229C43.3675 71.4663 43.3675 70.4097 43.3675 69.353C43.3675 68.7812 43.5791 68.5574 44.1515 68.545C44.4502 68.5574 44.7737 68.5699 45.147 68.5699ZM58.1638 68.5326C58.7487 63.2992 59.3211 58.0906 59.8935 52.8821C54.8038 52.8821 49.7888 52.8821 44.7239 52.8821C45.3088 58.1155 45.8813 63.3116 46.4537 68.5326C50.3736 68.5326 54.2563 68.5326 58.1638 68.5326ZM66.8499 48.3075C57.1309 48.3075 47.4866 48.3075 37.8422 48.3075C37.8422 48.3696 37.8422 48.4069 37.8547 48.4318C38.8876 50.1473 39.9329 51.8627 40.9782 53.5658C41.0404 53.6528 41.1524 53.7647 41.252 53.7771C41.9986 53.7895 42.7328 53.7895 43.5168 53.7895C43.4671 53.3171 43.4173 52.9069 43.3675 52.4967C43.3053 51.8379 43.5417 51.5644 44.1888 51.5519C49.6021 51.5519 55.0154 51.5519 60.4286 51.5519C61.0882 51.5519 61.3246 51.8254 61.2748 52.4718C61.2375 52.8945 61.1877 53.3171 61.138 53.7895C61.474 53.7895 61.7602 53.7522 62.0339 53.8019C63.1664 54.0133 63.8259 53.5658 64.3486 52.534C65.0579 51.0796 65.9788 49.7495 66.8499 48.3075ZM60.466 46.9401C59.6571 44.3544 56.6829 41.2467 52.2652 41.284C47.8972 41.3089 44.9355 44.4042 44.1639 46.9401C49.6021 46.9401 55.0278 46.9401 60.466 46.9401ZM56.4465 35.8517C56.4589 33.5768 54.642 31.7246 52.3523 31.6998C50.0874 31.6749 48.2083 33.5147 48.1834 35.7771C48.1586 38.1017 50.0003 39.9663 52.315 39.9663C54.5923 39.9788 56.434 38.139 56.4465 35.8517ZM44.6742 72.2619C49.8012 72.2619 54.866 72.2619 59.9433 72.2619C59.9433 71.4539 59.9433 70.6831 59.9433 69.9C54.8411 69.9 49.7639 69.9 44.6742 69.9C44.6742 70.6956 44.6742 71.4663 44.6742 72.2619ZM64.1619 39.6431C64.1619 39.2329 63.8135 38.8724 63.4028 38.8724C63.0046 38.8724 62.6686 39.1956 62.6562 39.6058C62.6437 40.0285 62.9673 40.389 63.3904 40.4014C63.7886 40.4138 64.1619 40.0658 64.1619 39.6431Z" fill="#01539D"/>
<path d="M58.1637 68.5324C54.2562 68.5324 50.3736 68.5324 46.4661 68.5324C45.8936 63.3114 45.3088 58.1153 44.7363 52.8818C49.8012 52.8818 54.8162 52.8818 59.9059 52.8818C59.321 58.0904 58.7486 63.2989 58.1637 68.5324Z" fill="#F9B041"/>
<path d="M64.1616 39.6428C64.1616 40.053 63.7883 40.4135 63.3776 40.4011C62.9545 40.3886 62.631 40.0281 62.6434 39.6055C62.6559 39.1953 62.9919 38.8721 63.3901 38.8721C63.8132 38.8721 64.1616 39.245 64.1616 39.6428Z" fill="#F9B041"/>
</g>
<defs>
<filter id="filter0_d_11133_4880" x="0.552734" y="0.552734" width="102.895" height="102.895" filterUnits="userSpaceOnUse" color-interpolation-filters="sRGB">
<feFlood flood-opacity="0" result="BackgroundImageFix"/>
<feColorMatrix in="SourceAlpha" type="matrix" values="0 0 0 0 0 0 0 0 0 0 0 0 0 0 0 0 0 0 127 0" result="hardAlpha"/>
<feOffset/>
<feGaussianBlur stdDeviation="5"/>
<feColorMatrix type="matrix" values="0 0 0 0 0.525 0 0 0 0 0.525 0 0 0 0 0.525 0 0 0 0.12 0"/>
<feBlend mode="normal" in2="BackgroundImageFix" result="effect1_dropShadow_11133_4880"/>
<feBlend mode="normal" in="SourceGraphic" in2="effect1_dropShadow_11133_4880" result="shape"/>
</filter>
<filter id="filter1_d_11133_4880" x="0.552734" y="0.552734" width="102.895" height="102.895" filterUnits="userSpaceOnUse" color-interpolation-filters="sRGB">
<feFlood flood-opacity="0" result="BackgroundImageFix"/>
<feColorMatrix in="SourceAlpha" type="matrix" values="0 0 0 0 0 0 0 0 0 0 0 0 0 0 0 0 0 0 127 0" result="hardAlpha"/>
<feOffset/>
<feGaussianBlur stdDeviation="5"/>
<feColorMatrix type="matrix" values="0 0 0 0 0.525 0 0 0 0 0.525 0 0 0 0 0.525 0 0 0 0.12 0"/>
<feBlend mode="normal" in2="BackgroundImageFix" result="effect1_dropShadow_11133_4880"/>
<feBlend mode="normal" in="SourceGraphic" in2="effect1_dropShadow_11133_4880" result="shape"/>
</filter>
<clipPath id="clip0_11133_4880">
<rect width="32.716" height="43.2099" fill="white" transform="translate(35.9507 30.3945)"/>
</clipPath>
</defs>
</svg>
